<?xml version="1.0" encoding="UTF-8"?><svg id="Calque_1" xmlns="http://www.w3.org/2000/svg" viewBox="0 0 224.07 94.19"><defs><style>.cls-1{fill:#6a9047;}</style></defs><g><path d="m.02,68.32h16.39v2.28H2.6v9.87h12.31v2.28H2.6v11.23H.02v-25.65Z"/><path d="m33.48,75.9c1.5.82,2.67,1.96,3.52,3.43.85,1.47,1.27,3.13,1.27,4.99s-.42,3.57-1.27,5.05c-.85,1.48-2.02,2.63-3.52,3.45-1.5.82-3.19,1.23-5.09,1.23s-3.59-.41-5.09-1.23c-1.5-.82-2.67-1.97-3.52-3.45-.85-1.48-1.27-3.16-1.27-5.05s.42-3.52,1.27-4.99c.85-1.47,2.02-2.61,3.52-3.43,1.5-.82,3.19-1.23,5.09-1.23s3.59.41,5.09,1.23Zm-8.91,1.85c-1.12.64-2,1.53-2.62,2.68-.62,1.15-.94,2.46-.94,3.93s.31,2.81.94,3.96c.62,1.15,1.5,2.04,2.62,2.68,1.12.64,2.4.95,3.82.95s2.7-.32,3.82-.95c1.12-.64,2-1.53,2.62-2.68.62-1.15.94-2.47.94-3.96s-.31-2.78-.94-3.93c-.62-1.15-1.5-2.04-2.62-2.68-1.12-.64-2.4-.95-3.82-.95s-2.69.32-3.82.95Z"/><path d="m48.88,75.86c1.21-.77,2.66-1.17,4.36-1.19v2.31c-2.07-.02-3.74.57-5,1.78-1.26,1.21-1.98,2.86-2.15,4.94v10.27h-2.51v-19.23h2.51v4.48c.65-1.47,1.58-2.59,2.79-3.36Z"/><path d="m71.88,77.52c1.6,1.9,2.33,4.45,2.21,7.65h-16.36c.17,2.05.95,3.71,2.32,4.97,1.37,1.26,3.07,1.89,5.09,1.89,1.25,0,2.41-.22,3.48-.66,1.07-.44,2-1.06,2.77-1.87l1.42,1.39c-.95,1-2.09,1.78-3.42,2.33-1.34.55-2.8.83-4.4.83-1.9,0-3.58-.41-5.05-1.23-1.47-.82-2.63-1.96-3.46-3.43-.84-1.47-1.25-3.14-1.25-5.03s.42-3.53,1.25-5.01c.84-1.48,1.99-2.63,3.46-3.45,1.47-.82,3.13-1.23,4.98-1.23,3.04,0,5.36.95,6.96,2.84Zm-.04,5.74c-.13-2.01-.81-3.6-2.04-4.79-1.24-1.19-2.85-1.78-4.85-1.78s-3.62.6-4.94,1.8c-1.32,1.2-2.08,2.79-2.28,4.77h14.11Zm-1.87-12h-2.58l-2.62-2.79-2.66,2.79h-2.58l3.86-4.59h2.77l3.82,4.59Z"/><path d="m89.21,92.65c-1.35.91-2.79,1.38-4.34,1.43-1.5,0-2.68-.45-3.56-1.36-.87-.9-1.31-2.26-1.31-4.07v-11.45h-2.81l-.04-1.91h2.84v-4.95h2.51v4.95l6.36-.04v1.94h-6.36v11.04c0,2.37.9,3.56,2.69,3.56,1,0,2.08-.34,3.26-1.03l.75,1.87Z"/><path d="m92.51,81.97h8.68v1.8h-8.68v-1.8Z"/><path d="m123.16,71.19c-1.37-.56-2.79-.84-4.27-.84-2.02,0-3.87.48-5.56,1.43-1.68.95-3.02,2.26-4,3.91-.99,1.65-1.48,3.46-1.48,5.41s.49,3.76,1.48,5.39c.99,1.64,2.32,2.94,4,3.91,1.68.97,3.54,1.45,5.56,1.45,1.45,0,2.86-.27,4.23-.83,1.37-.55,2.59-1.31,3.67-2.29l1.57,1.65c-1.3,1.17-2.78,2.1-4.45,2.79-1.67.69-3.38,1.03-5.13,1.03-2.47,0-4.74-.59-6.81-1.76-2.07-1.17-3.71-2.76-4.92-4.77-1.21-2.01-1.82-4.2-1.82-6.57s.61-4.55,1.83-6.53c1.22-1.98,2.88-3.55,4.96-4.72,2.08-1.16,4.36-1.74,6.83-1.74,1.77,0,3.48.32,5.13.97,1.65.65,3.09,1.55,4.34,2.7l-1.54,1.76c-1.05-1-2.26-1.79-3.63-2.35Z"/><path d="m133.75,66.75h2.51v27.23h-2.51v-27.23Z"/><path d="m146.29,67.98c.32.33.49.74.49,1.23s-.17.91-.5,1.25c-.34.34-.74.51-1.22.51-.5,0-.92-.17-1.25-.51-.34-.34-.5-.76-.5-1.25s.17-.9.5-1.23c.34-.33.75-.5,1.25-.5s.91.17,1.24.5Zm-2.51,6.77h2.51v19.23h-2.51v-19.23Z"/><path d="m184.06,76.65c1.3,1.32,1.95,3.16,1.95,5.5v11.82h-2.54v-11.23c0-1.83-.5-3.26-1.52-4.27s-2.4-1.52-4.17-1.52c-2.1.05-3.74.76-4.92,2.13s-1.78,3.18-1.78,5.43v9.47h-2.54v-11.23c0-1.83-.51-3.26-1.52-4.27s-2.4-1.52-4.17-1.52c-2.1.05-3.74.76-4.94,2.13-1.2,1.37-1.8,3.18-1.8,5.43v9.47h-2.51v-19.23h2.51v4.51c.65-1.52,1.62-2.65,2.9-3.41,1.29-.76,2.85-1.15,4.7-1.17,1.87,0,3.42.45,4.66,1.36,1.24.91,2.05,2.18,2.45,3.82.6-1.71,1.57-3,2.9-3.85,1.33-.86,2.98-1.3,4.92-1.32,2.32,0,4.13.66,5.43,1.98Z"/><path d="m205.02,93.97l-.04-3.23c-.77,1.13-1.78,1.96-3.03,2.51-1.25.55-2.68.83-4.3.83-1.32,0-2.49-.25-3.5-.75-1.01-.5-1.79-1.19-2.34-2.07-.55-.88-.82-1.87-.82-2.97,0-1.66.66-2.97,1.96-3.93,1.31-.95,3.11-1.43,5.41-1.43h6.59v-1.47c0-1.52-.46-2.69-1.38-3.52-.92-.83-2.27-1.25-4.04-1.25-2.1,0-4.21.77-6.33,2.31l-1.12-1.69c1.32-.9,2.58-1.57,3.78-2,1.2-.43,2.57-.64,4.12-.64,2.37,0,4.21.58,5.5,1.74,1.3,1.16,1.96,2.77,1.98,4.83l.04,12.73h-2.47Zm-2.49-3.14c1.21-.79,2.03-1.91,2.45-3.36v-2.64h-6.33c-1.72,0-3.03.28-3.93.84-.9.56-1.35,1.41-1.35,2.53s.43,2.07,1.29,2.77c.86.7,2,1.05,3.42,1.05,1.75,0,3.22-.4,4.44-1.19Z"/><path d="m224.07,92.65c-1.35.91-2.79,1.38-4.34,1.43-1.5,0-2.68-.45-3.56-1.36-.87-.9-1.31-2.26-1.31-4.07v-11.45h-2.81l-.04-1.91h2.84v-4.95h2.51v4.95l6.36-.04v1.94h-6.36v11.04c0,2.37.9,3.56,2.69,3.56,1,0,2.08-.34,3.26-1.03l.75,1.87Z"/></g><path d="m16.84,26.54c1.74,1.48,2.6,3.58,2.6,6.29s-.87,4.99-2.6,6.53c-1.74,1.54-4.2,2.31-7.37,2.31H2.53v8.29H0v-25.65h9.47c3.18,0,5.64.74,7.37,2.22Zm-1.82,11.19c1.33-1.11,2-2.72,2-4.82s-.66-3.62-1.98-4.7c-1.32-1.08-3.22-1.61-5.69-1.61H2.53v12.8h6.82c2.45,0,4.33-.56,5.67-1.67Z"/><path d="m59.77,26.98c-1.25-.35-2.42-.53-3.52-.53-1.76,0-3.17.35-4.24,1.05-1.06.7-1.6,1.65-1.6,2.84,0,1.05.29,1.91.88,2.57.59.66,1.31,1.18,2.16,1.56.86.38,2.03.8,3.52,1.27,1.74.51,3.14,1.02,4.2,1.52,1.06.5,1.97,1.23,2.71,2.18.75.95,1.12,2.21,1.12,3.78,0,1.37-.39,2.58-1.16,3.63-.77,1.05-1.85,1.87-3.25,2.44-1.39.57-3,.86-4.81.86s-3.53-.35-5.23-1.06c-1.7-.71-3.16-1.65-4.38-2.83l1.17-2.09c1.15,1.13,2.48,2.01,4,2.64,1.52.64,3.01.95,4.48.95,1.96,0,3.51-.4,4.66-1.19,1.15-.79,1.72-1.86,1.72-3.21,0-1.08-.29-1.96-.88-2.64-.59-.68-1.31-1.21-2.16-1.58-.86-.37-2.05-.79-3.6-1.28-1.74-.54-3.13-1.05-4.18-1.52-1.05-.48-1.94-1.19-2.68-2.13-.73-.94-1.1-2.17-1.1-3.69,0-1.3.37-2.43,1.1-3.41.73-.98,1.76-1.73,3.08-2.26,1.32-.53,2.85-.79,4.59-.79,1.39,0,2.79.21,4.2.62,1.41.42,2.65.97,3.72,1.65l-1.1,2.16c-1.05-.66-2.2-1.17-3.45-1.52Z"/><path d="m82.07,26.98c-1.25-.35-2.42-.53-3.52-.53-1.76,0-3.17.35-4.24,1.05-1.06.7-1.6,1.65-1.6,2.84,0,1.05.29,1.91.88,2.57.59.66,1.31,1.18,2.16,1.56.86.38,2.03.8,3.52,1.27,1.74.51,3.14,1.02,4.2,1.52,1.06.5,1.97,1.23,2.71,2.18.75.95,1.12,2.21,1.12,3.78,0,1.37-.39,2.58-1.16,3.63-.77,1.05-1.85,1.87-3.25,2.44-1.39.57-3,.86-4.81.86s-3.53-.35-5.23-1.06c-1.7-.71-3.16-1.65-4.38-2.83l1.17-2.09c1.15,1.13,2.48,2.01,4,2.64,1.52.64,3.01.95,4.48.95,1.96,0,3.51-.4,4.66-1.19,1.15-.79,1.72-1.86,1.72-3.21,0-1.08-.29-1.96-.88-2.64-.59-.68-1.31-1.21-2.16-1.58-.86-.37-2.05-.79-3.6-1.28-1.74-.54-3.13-1.05-4.18-1.52-1.05-.48-1.94-1.19-2.68-2.13-.73-.94-1.1-2.17-1.1-3.69,0-1.3.37-2.43,1.1-3.41.73-.98,1.76-1.73,3.08-2.26,1.32-.53,2.85-.79,4.59-.79,1.39,0,2.79.21,4.2.62,1.41.42,2.65.97,3.72,1.65l-1.1,2.16c-1.05-.66-2.2-1.17-3.45-1.52Z"/><path d="m93.59,24.32h17.17v2.27h-14.64v9.17h13.1v2.27h-13.1v9.65h15.12v2.27h-17.65v-25.65Z"/><path d="m134.35,49.97l-5.54-8.36c-.78.05-1.38.07-1.8.07h-7.04v8.29h-2.53v-25.65h9.58c3.2,0,5.68.74,7.43,2.22,1.75,1.48,2.62,3.58,2.62,6.29,0,2.13-.51,3.9-1.54,5.32-1.03,1.42-2.49,2.41-4.4,2.97l6.16,8.84h-2.94Zm-7.34-10.57c2.45,0,4.33-.56,5.65-1.67,1.32-1.11,1.98-2.72,1.98-4.82s-.66-3.62-1.98-4.7c-1.32-1.08-3.2-1.61-5.65-1.61h-7.04v12.8h7.04Z"/><path d="m143.96,24.32h17.17v2.27h-14.64v9.17h13.1v2.27h-13.1v9.65h15.12v2.27h-17.65v-25.65Z"/><path d="m167.81,24.32h2.53v23.37h11.3v2.27h-13.83v-25.65Z"/><path d="m186.63,24.32h2.53v23.37h11.3v2.27h-13.83v-25.65Z"/><path d="m205.45,24.32h17.17v2.27h-14.64v9.17h13.1v2.27h-13.1v9.65h15.12v2.27h-17.65v-25.65Z"/><polygon class="cls-1" points="41.6 40.53 40.59 38.3 32.96 21.4 25.36 38.28 24.36 40.51 20.1 49.97 22.81 49.97 25.82 43.14 25.84 43.14 26.46 41.74 27.43 39.54 32.9 27.2 38.45 39.59 39.43 41.78 40.05 43.14 40.06 43.14 42.97 49.66 43.1 49.97 45.85 49.97 41.6 40.53"/><path class="cls-1" d="m32.97,8.7l-12.38,27.48c.53.74,1.12,1.44,1.77,2.08l10.54-23.61,10.7,23.63c.66-.65,1.26-1.35,1.8-2.11l-12.42-27.47Z"/><path class="cls-1" d="m34.61.09c-.53-.06-1.08-.09-1.62-.09s-1.11.03-1.65.09c-7.6.82-13.54,7.28-13.54,15.1,0,3.26,1.04,6.28,2.79,8.76.53.74,1.12,1.44,1.77,2.08l1.06-2.37c-.63-.71-1.18-1.49-1.65-2.33-1-1.82-1.57-3.91-1.57-6.14,0-6.08,4.26-11.18,9.96-12.47.91-.21,1.86-.32,2.83-.32s1.91.11,2.81.32c5.7,1.29,9.98,6.39,9.98,12.47,0,2.22-.57,4.31-1.57,6.13-.47.86-1.03,1.65-1.68,2.38l1.07,2.35c.66-.65,1.26-1.35,1.8-2.11,1.75-2.47,2.78-5.49,2.78-8.74,0-7.83-5.95-14.29-13.57-15.1Z"/></svg>